<svg style="position: absolute; width: 0; height: 0; overflow: hidden;" aria-hidden="true" version="1.1" xmlns="http://www.w3.org/2000/svg" xmlns:xlink="http://www.w3.org/1999/xlink">
    
        <symbol id="tv" viewBox="0 0 24 24" stroke-width="1.5" stroke="currentColor" stroke-linecap="round" fill="none">
            <path d="M2 14v2c0 2.8284 0 4.2426 0.8787 5.1213C3.7574 22 5.1716 22 8 22h8c2.8284 0 4.2426 0 5.1213-0.8787S22 18.8284 22 16v-4c0-2.8284 0-4.2426-0.8787-5.1213C20.2426 6 18.8284 6 16 6H8C5.1716 6 3.7574 6 2.8787 6.8787 2.2374 7.52 2.0641 8.4466 2.0173 10" />
            <path d="M9 2l3 3.5 3-3.5" />
            <path d="M16 6v4M16 22v-8" />
            <path stroke="none" fill="#fff" d="M20 16c0-0.5523-0.4477-1-1-1s-1 0.4477-1 1 0.4477 1 1 1 1-0.4477 1-1z" />
            <path stroke="none" fill="#fff" d="M20 12c0-0.5523-0.4477-1-1-1s-1 0.4477-1 1 0.4477 1 1 1 1-0.4477 1-1z" />
        </symbol>
        <symbol id="repeat" viewBox="0 0 24 24" fill="#fff">
            <path d="M9.5 19.75c0.4142 0 0.75-0.3358 0.75-0.75s-0.3358-0.75-0.75-0.75zM11 5v0.75c0.3033 0 0.5768-0.1827 0.6929-0.463 0.1161-0.2802 0.0519-0.6028-0.1626-0.8173zM9.5303 2.4697c-0.2929-0.2929-0.7677-0.2929-1.0606 0-0.2929 0.2929-0.2929 0.7677 0 1.0606zM1.25 12c0 0.4142 0.3358 0.75 0.75 0.75S2.75 12.4142 2.75 12zM3.8699 15.5709c-0.237-0.3397-0.7045-0.423-1.0442-0.186-0.3397 0.237-0.423 0.7045-0.1861 1.0442zM9.5 18.25H9.0003l0 1.5H9.5zM9 5.75h2v-1.5H9zM11.5303 4.4697l-2-2-1.0606 1.0606 2 2zM2.75 12c0-3.4518 2.7982-6.25 6.25-6.25v-1.5c-4.2802 0-7.75 3.4698-7.75 7.75zM2.6397 16.4291C4.0389 18.435 6.366 19.75 9.0003 19.75l0-1.5c-2.1233 0-3.9996-1.0581-5.1304-2.6791z" />
            <path d="M13 19v-0.75c-0.3033 0-0.5768 0.1827-0.6929 0.463-0.1161 0.2802-0.0519 0.6028 0.1626 0.8173zM14.4697 21.5303c0.2929 0.2929 0.7677 0.2929 1.0606 0s0.2929-0.7677 0-1.0606zM14.5 4.25c-0.4142 0-0.75 0.3358-0.75 0.75s0.3358 0.75 0.75 0.75zM22.75 12c0-0.4142-0.3358-0.75-0.75-0.75s-0.75 0.3358-0.75 0.75zM20.1302 8.4291c0.2369 0.3397 0.7045 0.423 1.0442 0.186 0.3397-0.2369 0.423-0.7044 0.186-1.0442zM15 18.25h-2v1.5h2zM12.4697 19.5303l2 2 1.0606-1.0606-2-2zM14.5 5.75H15v-1.5h-0.5zM21.25 12c0 3.4518-2.7982 6.25-6.25 6.25v1.5c4.2802 0 7.75-3.4698 7.75-7.75zM21.3604 7.5709C19.9613 5.565 17.6342 4.25 15 4.25v1.5c2.1232 0 3.9995 1.0581 5.1302 2.6791z" />
        </symbol>
        <symbol id="logout" viewBox="0 0 24 24" stroke-width="1.5" stroke="currentColor" stroke-linecap="round" fill="none">
            <path d="M15 12H2M2 12 5.5 9M2 12l3.5 3" />
            <path d="M9.002 7c0.0121-2.175 0.1085-3.3529 0.8769-4.1213C10.7576 2 12.1718 2 15.0002 2h1c2.8284 0 4.2427 0 5.1213 0.8787C22.0002 3.7574 22.0002 5.1716 22.0002 8v8c0 2.8284 0 4.2426-0.8787 5.1213-0.7684 0.7684-1.9463 0.8649-4.1215 0.877M9.002 17c0.0121 2.175 0.1085 3.3529 0.8769 4.1213 0.6413 0.6413 1.5678 0.8146 3.1211 0.8614" />
        </symbol>
        <symbol id="add-circle" viewBox="0 0 24 24" stroke-width="1.5" stroke="currentColor" stroke-linecap="round" fill="none">
            <path d="M15 12h-3M12 12H9M12 12V9M12 12v3" />
            <path d="M7 3.3378C8.4709 2.487 10.1786 2 12 2c5.5228 0 10 4.4772 10 10 0 5.5228-4.4772 10-10 10-5.5228 0-10-4.4772-10-10 0-1.8214 0.487-3.5291 1.3378-5" />
        </symbol>
        <symbol id="minus-circle" viewBox="0 0 24 24" stroke-width="1.5" stroke="currentColor" stroke-linecap="round" fill="none">
            <path d="M15 12H9" />
            <path d="M7 3.3378C8.4709 2.487 10.1786 2 12 2c5.5228 0 10 4.4772 10 10 0 5.5228-4.4772 10-10 10-5.5228 0-10-4.4772-10-10 0-1.8214 0.487-3.5291 1.3378-5" />
        </symbol>
        <symbol id="pen-edit-round" viewBox="0 0 24 24" fill="none">
            <path stroke-width="1.5" stroke="currentColor" stroke-linecap="round" d="M16.652 3.4551l0.6489-0.6489c1.075-1.075 2.8179-1.075 3.8929 0 1.0749 1.075 1.0749 2.8179 0 3.8929L20.5449 7.348M16.652 3.4551c0 0 0.0811 1.3787 1.2977 2.5952 1.2165 1.2165 2.5952 1.2977 2.5952 1.2977M16.652 3.4551 10.6872 9.4199c-0.404 0.404-0.606 0.606-0.7798 0.8288-0.2049 0.2627-0.3806 0.547-0.524 0.8478-0.1215 0.255-0.2118 0.526-0.3925 1.0681L8.4124 13.9M20.5449 7.348l-2.9824 2.9824M14.5801 13.3128c-0.404 0.404-0.606 0.606-0.8288 0.7798-0.2627 0.2049-0.547 0.3806-0.8478 0.524-0.255 0.1215-0.526 0.2118-1.0681 0.3925L10.1 15.5876M10.1 15.5876 8.9771 15.9619c-0.2668 0.0889-0.5608 0.0195-0.7597-0.1793-0.1988-0.1989-0.2682-0.4929-0.1793-0.7597L8.4124 13.9M10.1 15.5876 8.4124 13.9" />
            <path fill="#fff" d="M22.75 12c0-0.4142-0.3358-0.75-0.75-0.75s-0.75 0.3358-0.75 0.75zM12 2.75c0.4142 0 0.75-0.3358 0.75-0.75S12.4142 1.25 12 1.25zM7.3755 20.013c-0.3585-0.2074-0.8173-0.0849-1.0247 0.2736-0.2074 0.3586-0.0849 0.8174 0.2737 1.0248zM2.6886 17.3755c0.2074 0.3586 0.6662 0.4811 1.0248 0.2737 0.3585-0.2074 0.481-0.6662 0.2736-1.0247zM21.25 12c0 5.1086-4.1414 9.25-9.25 9.25v1.5c5.9371 0 10.75-4.8129 10.75-10.75zM12 1.25C6.0629 1.25 1.25 6.0629 1.25 12h1.5c0-5.1086 4.1414-9.25 9.25-9.25zM6.6245 21.3114C8.2064 22.2265 10.0432 22.75 12 22.75v-1.5c-1.6861 0-3.2647-0.4504-4.6245-1.237zM1.25 12c0 1.9568 0.5235 3.7936 1.4386 5.3755l1.2984-0.751C3.2004 15.2647 2.75 13.6861 2.75 12z" />
        </symbol>
        <symbol id="wheel" viewBox="0 0 24 24" stroke-width="1.5" stroke="currentColor" stroke-linecap="round" fill="none">
            <circle cx="12" cy="12" r="2" />
            <path d="M6 12h4" />
            <path d="M14 12h4" />
            <path d="M9 17.1963l2-3.4641" />
            <path d="M13 10.2681 15 6.804" />
            <path d="M15 17.1963l-2-3.4641" />
            <path d="M11 10.2681 9 6.804" />
            <path d="M7 3.3378C8.4709 2.487 10.1786 2 12 2c5.5228 0 10 4.4772 10 10 0 5.5228-4.4772 10-10 10-5.5228 0-10-4.4772-10-10 0-1.8214 0.487-3.5291 1.3378-5" />
            <path d="M15 17.1973C14.1175 17.7078 13.0929 18 12 18c-3.3137 0-6-2.6863-6-6s2.6863-6 6-6 6 2.6863 6 6c0 1.0929-0.2922 2.1175-0.8027 3" />
        </symbol>
        <symbol id="tram" viewBox="0 0 24 24" stroke-width="1.5" stroke="currentColor" stroke-linecap="round" stroke-linejoin="round" fill="none">
            <path stroke-linejoin="miter" d="M20 10v2c0 3.7712 0 5.6569-1.1716 6.8284C17.6569 20 15.7712 20 12 20c-3.7712 0-5.6569 0-6.8284-1.1716C4 17.6569 4 15.7712 4 12v-2c0-3.7712 0-5.6569 1.1716-6.8284C6.3431 2 8.2288 2 12 2c3.7712 0 5.6569 0 6.8284 1.1716C19.4816 3.8248 19.7706 4.6999 19.8985 6" />
            <path d="M15.5 16H17" />
            <path d="M7 16h1.5" />
            <path d="M7 20 6 22" />
            <path d="M17 20l1 2" />
            <path d="M10 2v0.5c0 1.1046 0.8954 2 2 2s2-0.8954 2-2V2" />
            <path d="M20 13h-4M4 13h8" />
        </symbol>
        <symbol id="sun-sea" viewBox="0 0 24 24" stroke-width="1.5" stroke="currentColor" stroke-linecap="round" fill="none">
            <path d="M8 22h8" />
            <path d="M5 19h14" />
            <path d="M2 16h20" />
            <path d="M10 6.3414C10.6256 6.1203 11.2987 6 12 6c3.3137 0 6 2.6863 6 6 0 1.5217-0.5665 2.911-1.5 3.9687h-9C6.5665 14.911 6 13.5217 6 12c0-0.7013 0.1203-1.3744 0.3414-2" />
            <path d="M12 2v1" />
            <path d="M22 12h-1" />
            <path d="M3 12H2" />
            <path d="M19.0708 4.9297 18.678 5.3225" />
            <path d="M5.3218 5.3223 4.9289 4.9294" />
        </symbol>
        <symbol id="wallet" viewBox="0 0 24 24" stroke-width="1.5" stroke="currentColor" stroke-linecap="round" fill="none">
            <path d="M6 8h4" />
            <path d="M22 10.5c0-0.0774 0-0.5327-23e-4-0.5654-0.0354-0.5008-0.4649-0.8996-1.0042-0.9325C20.9583 9 20.9167 9 20.8333 9h-2.6025C16.4465 9 15 10.3431 15 12s1.4465 3 3.2308 3h2.6025c0.0834 0 0.125 0 0.1602-21e-4 0.5393-0.0329 0.9688-0.4317 1.0042-0.9325C22 14.0327 22 13.5774 22 13.5" />
            <circle stroke="none" fill="#fff" cx="18" cy="12" r="1" />
            <path d="M13 4c3.7712 0 5.6569 0 6.8284 1.1716C20.6366 5.9798 20.8873 7.1277 20.965 9M10 20h3c3.7712 0 5.6569 0 6.8284-1.1716 0.8082-0.8081 1.0589-1.9561 1.1366-3.8284M9 4.0009C5.8857 4.01 4.2347 4.1085 3.1716 5.1716 2 6.3431 2 8.2288 2 12c0 3.7712 0 5.6569 1.1716 6.8284C3.8248 19.4816 4.6999 19.7706 6 19.8985" />
        </symbol>
        <symbol id="wad-of-money" viewBox="0 0 24 24" stroke-width="1.5" stroke="currentColor" stroke-linecap="round" fill="none">
            <path d="M15 5H9C6.1911 5 4.7866 5 3.7777 5.6741 3.341 5.966 2.966 6.341 2.6741 6.7777 2 7.7866 2 9.1911 2 12c0 2.8089 0 4.2134 0.6741 5.2223 0.2919 0.4367 0.6669 0.8117 1.1036 1.1036 0.347 0.2318 0.7407 0.3839 1.2223 0.4837M9 19h6c2.8089 0 4.2134 0 5.2223-0.6741 0.4367-0.2919 0.8117-0.6669 1.1036-1.1036C22 16.2134 22 14.8089 22 12c0-2.8089 0-4.2134-0.6741-5.2223C21.034 6.341 20.659 5.966 20.2223 5.6741 19.8753 5.4423 19.4816 5.2902 19 5.1904" />
            <path stroke-linecap="butt" d="M9 9c-1.6569 0-3 1.3431-3 3s1.3431 3 3 3" />
            <path stroke-linecap="butt" d="M15 9c1.6569 0 3 1.3431 3 3s-1.3431 3-3 3" />
            <path d="M9 5v14" />
            <path d="M15 5v14" />
        </symbol>
        <symbol id="dashboard" viewBox="0 0 24 24" stroke-width="1.5" stroke="currentColor" fill="none">
            <path stroke-linecap="round" d="M21.4825 19c-0.0389 0.9362-0.1642 1.5101-0.5683 1.9142C20.3284 21.5 19.3856 21.5 17.5 21.5s-2.8284 0-3.4142-0.5858S13.5 19.3856 13.5 17.5v-2c0-1.8856 0-2.8284 0.5858-3.4142S15.6144 11.5 17.5 11.5s2.8284 0 3.4142 0.5858c0.5316 0.5315 0.5808 1.357 0.5853 2.9142" />
            <path d="M2 8.5c0 1.8856 0 2.8284 0.5858 3.4142C3.1716 12.5 4.1144 12.5 6 12.5s2.8284 0 3.4142-0.5858C10 11.3284 10 10.3856 10 8.5v-2c0-1.8856 0-2.8284-0.5858-3.4142C8.8284 2.5 7.8856 2.5 6 2.5s-2.8284 0-3.4142 0.5858C2 3.6716 2 4.6144 2 6.5z" />
            <path stroke-linecap="round" d="M15.5 2.5134c-0.3273 0.0168-0.5615 0.0544-0.7654 0.1388-0.49 0.203-0.8794 0.5924-1.0824 1.0824C13.5 4.1022 13.5 4.5681 13.5 5.5c0 0.9319 0 1.3978 0.1522 1.7654 0.203 0.49 0.5924 0.8794 1.0824 1.0824C15.1022 8.5 15.5681 8.5 16.5 8.5l2 0c0.9319 0 1.3978 0 1.7654-0.1523 0.49-0.2029 0.8794-0.5923 1.0824-1.0823C21.5 6.8978 21.5 6.4319 21.5 5.5c0-0.9319 0-1.3978-0.1522-1.7654-0.203-0.49-0.5924-0.8794-1.0824-1.0824-0.2039-0.0844-0.4381-0.122-0.7654-0.1388" />
            <path d="M2 18.5c0 0.9319 0 1.3978 0.1522 1.7654 0.203 0.49 0.5924 0.8794 1.0824 1.0824C3.6022 21.5 4.0681 21.5 5 21.5h2c0.9319 0 1.3978 0 1.7654-0.1522 0.49-0.203 0.8794-0.5924 1.0824-1.0824C10 19.8978 10 19.4319 10 18.5s0-1.3978-0.1522-1.7654c-0.203-0.49-0.5924-0.8794-1.0824-1.0824C8.3978 15.5 7.9319 15.5 7 15.5H5c-0.9319 0-1.3978 0-1.7654 0.1522-0.49 0.203-0.8794 0.5924-1.0824 1.0824C2 17.1022 2 17.5681 2 18.5z" />
        </symbol>
        <symbol id="confirm" viewBox="0 0 24 24" fill="none">
            <path stroke-width="1.5" stroke="currentColor" stroke-linecap="round" stroke-linejoin="round" d="M7 12.9l3.1429 3.6 1.9642-2.25M18 7.5 14.0714 12" />
        </symbol>
        <symbol id="suitcase" viewBox="0 0 24 24" fill="#fff">
            <path stroke-width="1.5" stroke="currentColor" stroke-linecap="round" fill="none" d="M2 14c0-3.7712 0-5.6569 1.1716-6.8284C4.3431 6 6.2288 6 10 6h4c3.7712 0 5.6569 0 6.8284 1.1716 0.6532 0.6532 0.9422 1.5283 1.0701 2.8284M22 14c0 3.7712 0 5.6569-1.1716 6.8284C19.6569 22 17.7712 22 14 22h-4c-3.7712 0-5.6569 0-6.8284-1.1716C2.5184 20.1752 2.2294 19.3001 2.1015 18" />
            <path stroke-width="1.5" stroke="currentColor" fill="none" d="M16 6c0-1.8856 0-2.8284-0.5858-3.4142C14.8284 2 13.8856 2 12 2S9.1716 2 8.5858 2.5858C8 3.1716 8 4.1144 8 6" />
            <path d="M17 9c0 0.5523-0.4477 1-1 1s-1-0.4477-1-1 0.4477-1 1-1 1 0.4477 1 1z" />
            <path d="M9 9c0 0.5523-0.4477 1-1 1S7 9.5523 7 9 7.4477 8 8 8 9 8.4477 9 9z" />
        </symbol>
        <symbol id="sale" viewBox="0 0 24 24" fill="#fff">
            <path stroke-width="1.5" stroke="currentColor" stroke-linecap="round" fill="none" d="M3.0291 13.0776c-0.3259-0.6818-0.3259-1.4744 0-2.1562 0.1409-0.2948 0.3811-0.5767 0.8617-1.1406C4.082 9.5564 4.1776 9.4442 4.258 9.3244 4.4421 9.0497 4.5699 8.7411 4.6339 8.4167c0.028-0.1416 0.0397-0.2885 0.0632-0.5824 0.0589-0.7385 0.0884-1.1078 0.1972-1.4159 0.2516-0.7125 0.8121-1.2729 1.5246-1.5246C6.727 4.785 7.0963 4.7555 7.8348 4.6966 8.1287 4.6731 8.2756 4.6614 8.4172 4.6334c0.3244-0.064 0.6329-0.1918 0.9076-0.3759 0.1199-0.0804 0.2321-0.176 0.4565-0.3672 0.5639-0.4806 0.8458-0.7208 1.1406-0.8617 0.6818-0.3259 1.4744-0.3259 2.1562 0 0.2948 0.1409 0.5767 0.3811 1.1406 0.8617 0.2244 0.1912 0.3366 0.2868 0.4565 0.3672 0.2747 0.1841 0.5832 0.3119 0.9076 0.3759 0.1416 0.028 0.2885 0.0397 0.5825 0.0632 0.7385 0.0589 1.1077 0.0884 1.4158 0.1972 0.7125 0.2517 1.273 0.8121 1.5247 1.5246M4.8943 17.5806c0.2516 0.7125 0.8121 1.273 1.5246 1.5247 0.3081 0.1088 0.6773 0.1382 1.4158 0.1972 0.294 0.0234 0.4409 0.0352 0.5825 0.0631 0.3244 0.0641 0.6329 0.1918 0.9076 0.376 0.1199 0.0803 0.2321 0.1759 0.4565 0.3672 0.5639 0.4805 0.8458 0.7208 1.1406 0.8617 0.6818 0.3258 1.4744 0.3258 2.1562 0 0.2948-0.1409 0.5767-0.3812 1.1406-0.8617 0.2244-0.1913 0.3366-0.2869 0.4565-0.3672 0.2747-0.1842 0.5832-0.3119 0.9076-0.376 0.1416-0.0279 0.2885-0.0397 0.5825-0.0631 0.7385-0.059 1.1077-0.0884 1.4158-0.1972 0.7125-0.2517 1.273-0.8122 1.5247-1.5247 0.1088-0.3081 0.1382-0.6773 0.1972-1.4158 0.0234-0.2939 0.0351-0.4409 0.0631-0.5824 0.064-0.3245 0.1918-0.633 0.376-0.9077 0.0803-0.1199 0.1759-0.2321 0.3672-0.4565 0.4805-0.5639 0.7208-0.8458 0.8617-1.1406 0.3258-0.6818 0.3258-1.4744 0-2.1562" />
            <path stroke-width="1.5" stroke="currentColor" stroke-linecap="round" fill="none" d="M9 15l6-6" />
            <path d="M15.5 14.5c0 0.5523-0.4477 1-1 1s-1-0.4477-1-1 0.4477-1 1-1 1 0.4477 1 1z" />
            <path d="M10.5 9.5c0 0.5523-0.4477 1-1 1-0.5523 0-1-0.4477-1-1 0-0.5523 0.4477-1 1-1 0.5523 0 1 0.4477 1 1z" />
        </symbol>
        <symbol id="restart" viewBox="0 0 24 24" fill="none">
            <path stroke-width="1.5" stroke="currentColor" stroke-linecap="round" stroke-linejoin="round" d="M19.7285 10.9288c0.7128 2.669 0.0222 5.6347-2.0716 7.7285-2.4771 2.4771-6.1743 2.9902-9.1569 1.5393M18.364 8.0507 17.6569 7.3436c-3.1242-3.1242-8.1895-3.1242-11.3137 0C3.4296 10.2571 3.2332 14.8588 5.7538 18M18.364 8.0507l-4.2427 0M18.364 8.0507V3.8081" />
            <defs>
                <clipPath id="clip0_1276_7761">
                    <rect fill="#fff" width="24" height="24" />
                </clipPath>
            </defs>
        </symbol>
        <symbol id="chart-pie" viewBox="0 0 24 24" stroke-width="1.5" stroke="currentColor" fill="none">
            <path d="M21.446 7.069c-0.8118-2.0607-2.4543-3.7032-4.515-4.515C15.3895 1.9467 14 3.3432 14 5v4c0 0.5523 0.4477 1 1 1h4c1.6569 0 3.0533-1.3894 2.446-2.931z" />
            <path stroke-linecap="round" d="M6.2221 4.6011c0.4445-0.2971 0.9113-0.5547 1.395-0.7713 1.3719-0.6144 2.0578-0.9216 2.9704-0.3304C11.5 4.0906 11.5 5.0604 11.5 7v1.5c0 1.8856 0 2.8284 0.5858 3.4142S13.6144 12.5 15.5 12.5H17c1.9396 0 2.9094 0 3.5006 0.9125 0.5912 0.9126 0.284 1.5985-0.3304 2.9704-0.2166 0.4837-0.4742 0.9505-0.7712 1.395-1.0439 1.5623-2.5276 2.7799-4.2635 3.499-1.7359 0.719-3.646 0.9071-5.4888 0.5406-1.8429-0.3666-3.5356-1.2714-4.8642-2.6-1.3286-1.3286-2.2334-3.0213-2.6-4.8641-0.3665-1.8429-0.1784-3.753 0.5407-5.4889" />
        </symbol>
        <symbol id="laptop" viewBox="0 0 24 24" stroke-width="1.5" stroke="currentColor" stroke-linecap="round" fill="none">
            <path d="M19.6471 15.5357V8c0-1.8856 0-2.8284-0.5858-3.4142C18.4755 4 17.5327 4 15.6471 4H12M19.6471 15.5357l1.744 1.8001c0.0445 0.046 0.0668 0.069 0.0876 0.0918 0.3211 0.3526 0.5056 0.8082 0.5203 1.2848C22 18.7433 22 18.7753 22 18.8393c0 0.1492 0 0.2238-4e-3 0.2868-0.0635 1.0053-0.8646 1.8064-1.8699 1.8699C20.0631 21 19.9885 21 19.8393 21H4.1607c-0.1492 0-0.2238 0-0.2868-4e-3-1.0053-0.0635-1.8064-0.8646-1.8699-1.8699C2 19.0631 2 18.9885 2 18.8393c0-0.064 0-0.096 1e-3-0.1269 0.0147-0.4766 0.1992-0.9322 0.5203-1.2848 0.0208-0.0228 0.0431-0.0458 0.0876-0.0918l1.744-1.8001M19.6471 15.5357h-2.6114M4.3529 15.5357 4.3529 8c0-1.8856 0-2.8284 0.5858-3.4142C5.5245 4 6.4673 4 8.3529 4M4.3529 15.5357H13" />
            <path d="M9.5 18.5h5" />
            <path stroke="none" fill="#fff" d="M12.75 6.75c0 0.4142-0.3358 0.75-0.75 0.75s-0.75-0.3358-0.75-0.75S11.5858 6 12 6s0.75 0.3358 0.75 0.75z" />
        </symbol>
        <symbol id="list-arrow-down" viewBox="0 0 24 24" stroke-width="1.5" stroke="currentColor" stroke-linecap="round" fill="none">
            <path d="M11 16H3" />
            <path d="M12 11H3" />
            <path d="M15 14.5 17.5 17M17.5 17 20 14.5M17.5 17V9" />
            <path d="M3 6h10.5M20 6h-2.25" />
        </symbol>
        <symbol id="chart-bar-2" viewBox="0 0 24 24" stroke-width="1.5" stroke="currentColor" stroke-linecap="round" fill="none">
            <path d="M3 22h18" />
            <path d="M3 17c0 0.9428 0 1.4142 0.2929 1.7071C3.5858 19 4.0572 19 5 19s1.4142 0 1.7071-0.2929S7 17.9428 7 17v-6c0-0.9428 0-1.4142-0.2929-1.7071C6.4142 9 5.9428 9 5 9S3.5858 9 3.2929 9.2929C3 9.5858 3 10.0572 3 11v2" />
            <path d="M10 7c0-0.9428 0-1.4142 0.2929-1.7071S11.0572 5 12 5s1.4142 0 1.7071 0.2929C14 5.5858 14 6.0572 14 7v10c0 0.9428 0 1.4142-0.2929 1.7071S12.9428 19 12 19s-1.4142 0-1.7071-0.2929S10 17.9428 10 17z" />
            <path d="M21 11v6c0 0.9428 0 1.4142-0.2929 1.7071S19.9428 19 19 19s-1.4142 0-1.7071-0.2929S17 17.9428 17 17V4c0-0.9428 0-1.4142 0.2929-1.7071C17.5858 2 18.0572 2 19 2s1.4142 0 1.7071 0.2929C21 2.5858 21 3.0572 21 4v3" />
        </symbol>
        <symbol id="course-up" viewBox="0 0 24 24" fill="none">
            <path stroke-width="1.5" stroke="currentColor" stroke-linecap="round" stroke-linejoin="round" d="M22 7v5.5458M22 7h-5.5821M22 7l-4.5 4.5M14.6203 14.3347c-0.9976 0.9916-1.4965 1.4873-2.1152 1.4873-0.6187-1e-4-1.1175-0.496-2.1149-1.4878l-0.2393-0.238c-0.9984-0.9927-1.4975-1.4891-2.1167-1.4888-0.6191 2e-4-1.1179 0.4969-2.1155 1.4903L2 18" />
        </symbol>
        <symbol id="course-down" viewBox="0 0 24 24" fill="none">
            <path stroke-width="1.5" stroke="currentColor" stroke-linecap="round" stroke-linejoin="round" d="M14.6203 10.6653c-0.9976-0.9916-1.4965-1.4874-2.1152-1.4873-0.6187 1e-4-1.1175 0.496-2.1149 1.4878l-0.2393 0.238c-0.9984 0.9927-1.4975 1.4891-2.1167 1.4888-0.6191-2e-4-1.1179-0.4969-2.1155-1.4903L2 7M22 18v-5.5458M22 18h-5.5821M22 18l-4.5-4.5" />
        </symbol>
        <symbol id="chart-bar" viewBox="0 0 24 24" stroke-width="1.5" stroke="currentColor" stroke-linecap="round" fill="none">
            <path d="M7 18v-3" />
            <path d="M12 18v-6" />
            <path d="M17 18V9" />
            <path d="M22 12c0 4.714 0 7.0711-1.4645 8.5355C19.0711 22 16.714 22 12 22c-4.714 0-7.0711 0-8.5355-1.4645C2 19.0711 2 16.714 2 12 2 7.286 2 4.9289 3.4645 3.4645 4.9289 2 7.286 2 12 2c4.714 0 7.0711 0 8.5355 1.4645 0.9738 0.9737 1.3001 2.342 1.4094 4.5355" />
        </symbol>
        <symbol id="diagram-up" viewBox="0 0 24 24" stroke-width="1.5" stroke="currentColor" stroke-linecap="round" fill="none">
            <path d="M22 22H12c-4.714 0-7.0711 0-8.5355-1.4645C2 19.0711 2 16.714 2 12V9M2 2v3" />
            <path d="M19.0002 7l-3.1181 3.9264c-0.4776 0.6014-0.7164 0.9022-0.9905 1.0487-0.4216 0.2254-0.9253 0.2363-1.3562 0.0295-0.2803-0.1345-0.5319-0.4245-1.0352-1.0046-0.5034-0.5801-0.755-0.8701-1.0353-1.0047-0.4309-0.2068-0.9346-0.1958-1.3561 0.0295-0.2742 0.1466-0.513 0.4473-0.9906 1.0487L6 15" />
        </symbol>
        <symbol id="diagram-down" viewBox="0 0 24 24" stroke-width="1.5" stroke="currentColor" stroke-linecap="round" fill="none">
            <path d="M19.0002 15l-3.1181-3.9264c-0.4776-0.6014-0.7164-0.9022-0.9905-1.0487-0.4216-0.2254-0.9253-0.2363-1.3562-0.0295-0.2803 0.1345-0.5319 0.4245-1.0352 1.0046-0.5034 0.5801-0.755 0.8701-1.0353 1.0046-0.4309 0.2069-0.9346 0.1959-1.3561-0.0294-0.2742-0.1466-0.513-0.4473-0.9906-1.0487L6 7" />
            <path d="M22 22H12c-4.714 0-7.0711 0-8.5355-1.4645C2 19.0711 2 16.714 2 12V9M2 2v3" />
        </symbol>
        <symbol id="dollar-circle" viewBox="0 0 24 24" stroke-width="1.5" stroke="currentColor" stroke-linecap="round" fill="none">
            <path d="M12 17v0.5 0.5" />
            <path d="M12 6v0.5V7" />
            <path d="M15 9.5C15 8.1193 13.6569 7 12 7S9 8.1193 9 9.5c0 1.3807 1.3431 2.5 3 2.5s3 1.1193 3 2.5-1.3431 2.5-3 2.5-3-1.1193-3-2.5" />
            <path d="M7 3.3378C8.4709 2.487 10.1786 2 12 2c5.5228 0 10 4.4772 10 10 0 5.5228-4.4772 10-10 10-5.5228 0-10-4.4772-10-10 0-1.8214 0.487-3.5291 1.3378-5" />
        </symbol>
        <symbol id="gamepad" viewBox="0 0 24 24" fill="#fff">
            <path stroke-width="1.5" stroke="currentColor" stroke-linecap="round" fill="none" d="M21.2206 8c-0.6895-2.184-1.7925-3.3651-3.1298-3.8394C17.7099 4.0255 17.3016 4 16.8974 4h-0.6125c-0.8775 0-1.7335 0.2722-2.4498 0.7792l-0.5019 0.3552C12.9434 5.4103 12.4776 5.5584 12 5.5584c-0.4775 0-0.9433-0.1481-1.3331-0.424L10.165 4.7792C9.4486 4.2723 8.5926 4 7.715 4H7.1026C6.6984 4 6.2901 4.0255 5.9092 4.1606 3.5265 5.0057 1.8875 8.095 2.006 15.1026c0.0239 1.4119 0.3543 2.9724 1.6282 3.5816C4.0312 18.8741 4.4967 19 5.0267 19c0.636 0 1.1411-0.1813 1.5309-0.4368 0.9139-0.599 1.5836-1.5993 2.5537-2.1023C9.6952 16.1581 10.3434 16 11.0011 16h1.9978c0.6577 0 1.3059 0.1581 1.8899 0.4609 0.97 0.503 1.6397 1.5033 2.5536 2.1023C17.8322 18.8187 18.3373 19 18.9733 19c0.53 0 0.9955-0.1259 1.3925-0.3158 1.2739-0.6092 1.6043-2.1697 1.6282-3.5816 0.0192-1.1345-77e-4-2.1664-0.0764-3.1026" />
            <path stroke-width="1.5" stroke="currentColor" stroke-linecap="round" fill="none" d="M7.5 9v3M6 10.5h3" />
            <path d="M19 10.25c0 0.4142-0.3358 0.75-0.75 0.75s-0.75-0.3358-0.75-0.75c0-0.4142 0.3358-0.75 0.75-0.75S19 9.8358 19 10.25z" />
            <path d="M16 10.25c0 0.4142-0.3358 0.75-0.75 0.75s-0.75-0.3358-0.75-0.75c0-0.4142 0.3358-0.75 0.75-0.75S16 9.8358 16 10.25z" />
            <path d="M16.75 8c0.4142 0 0.75 0.3358 0.75 0.75S17.1642 9.5 16.75 9.5 16 9.1642 16 8.75 16.3358 8 16.75 8z" />
            <path d="M16.75 11c0.4142 0 0.75 0.3358 0.75 0.75s-0.3358 0.75-0.75 0.75S16 12.1642 16 11.75 16.3358 11 16.75 11z" />
        </symbol>
        <symbol id="graph-up" viewBox="0 0 24 24" stroke-width="1.5" stroke="currentColor" stroke-linecap="round" fill="none">
            <path stroke-linejoin="round" d="M7 14l2.2929-2.2929c0.3905-0.3905 1.0237-0.3905 1.4142 0l1.5858 1.5858c0.3905 0.3905 1.0237 0.3905 1.4142 0L17 10M17 10v2.5M17 10h-2.5" />
            <path d="M22 12c0 4.714 0 7.0711-1.4645 8.5355C19.0711 22 16.714 22 12 22c-4.714 0-7.0711 0-8.5355-1.4645C2 19.0711 2 16.714 2 12 2 7.286 2 4.9289 3.4645 3.4645 4.9289 2 7.286 2 12 2c4.714 0 7.0711 0 8.5355 1.4645 0.9738 0.9737 1.3001 2.342 1.4094 4.5355" />
        </symbol>
        <symbol id="heart-pulse" viewBox="0 0 24 24" fill="none">
            <path stroke-width="1.5" stroke="currentColor" stroke-linecap="round" d="M18 11.9999h-0.8014c-0.8297 0-1.2445 0-1.5884 0.1947-0.3438 0.1947-0.5573 0.5504-0.9841 1.2618l-0.0309 0.0515c-0.3976 0.6627-0.5965 0.9941-0.8857 0.9886-0.2893-54e-4-0.4756-0.344-0.848-1.0212l-1.6873-3.0678c-0.3473-0.6314-0.5209-0.9472-0.7983-0.9621-0.2773-0.015-0.4839 0.2802-0.8971 0.8705l-0.2831 0.4044c-0.4389 0.627-0.6584 0.9405-0.984 1.11-0.3256 0.1696-0.7083 0.1696-1.4737 0.1696H6" />
            <path fill="#fff" d="M8.9617 18.9108l0.4643-0.5889zM12 5.5006 11.4596 6.0207C11.601 6.1676 11.7961 6.2506 12 6.2506s0.399-0.083 0.5404-0.2299zM15.0383 18.9109l0.4643 0.589v0zM12 20.4859v-0.75zM2.6567 13.3964c0.2189 0.3516 0.6814 0.4592 1.033 0.2403 0.3517-0.2189 0.4592-0.6815 0.2403-1.0331zM6.5297 15.7718c-0.2933-0.2925-0.7681-0.292-1.0607 13e-4-0.2925 0.2932-0.2919 0.7681 13e-4 1.0606zM2.75 9.1371c0-2.8029 1.2572-4.542 2.8292-5.14 1.5763-0.5996 3.7721-0.1669 5.8804 2.0236l1.0808-1.0402c-2.3915-2.4847-5.1957-3.2598-7.4945-2.3854C2.7429 3.4712 1.25 5.8879 1.25 9.1371zM15.5026 19.4999c1.4923-1.1765 3.2811-2.7538 4.7035-4.5161 1.4065-1.7426 2.5439-3.7749 2.5439-5.8468l-1.5 0c0 1.551-0.8723 3.2459-2.2111 4.9047-1.3229 1.639-3.015 3.1371-4.4649 4.2802zM22.75 9.137c0-3.2492-1.4929-5.6659-3.7959-6.5419-2.2988-0.8744-5.103-0.0993-7.4945 2.3854l1.0808 1.0402c2.1083-2.1905 4.3041-2.6232 5.8804-2.0236 1.572 0.598 2.8292 2.3371 2.8292 5.1399zM8.4974 19.4998c1.2743 1.0046 2.1527 1.7361 3.5026 1.7361v-1.5c-0.7307 0-1.1843-0.3185-2.5739-1.414zM14.574 18.3219c-1.3897 1.0955-1.8433 1.414-2.574 1.414v1.5c1.3499 0 2.2283-0.7315 3.5026-1.736zM3.93 12.6036c-0.746-1.1982-1.18-2.3724-1.18-3.4665l-1.5 0c0 1.4799 0.5805 2.9324 1.4067 4.2593zM9.4261 18.3219c-0.917-0.7229-1.9352-1.5912-2.8964-2.5501l-1.0594 1.0619c1.0132 1.0108 2.0779 1.9178 3.0271 2.6661z" />
        </symbol>
        <symbol id="cash-out" viewBox="0 0 24 24" stroke-width="1.5" stroke="currentColor" stroke-linecap="round" stroke-linejoin="round" fill="none">
            <path stroke="none" fill="#fff" d="M5.8889 3.75c0.4142 0 0.75-0.3358 0.75-0.75 0-0.4142-0.3358-0.75-0.75-0.75zM10 2.25C9.5858 2.25 9.25 2.5858 9.25 3S9.5858 3.75 10 3.75zM18.1111 3.75c1.7103 0 3.1389 1.4405 3.1389 3.2704l1.5 0c0-2.6109-2.0536-4.7704-4.6389-4.7704zM5.8889 2.25C3.3036 2.25 1.25 4.4095 1.25 7.0204l1.5 0C2.75 5.1905 4.1786 3.75 5.8889 3.75zM21.25 7.0204c0 1.6669-1.1893 3.0153-2.693 3.2377l0.2194 1.4838c2.2655-0.335 3.9736-2.3377 3.9736-4.7215zM5.4431 10.2581C3.9393 10.0357 2.75 8.6873 2.75 7.0204l-1.5 0c0 2.3838 1.7081 4.3865 3.9736 4.7215zM10 3.75h8.1111v-1.5H10z" />
            <path d="M12 9v5M12 14l2-2.3333M12 14l-2-2.3333" />
            <path stroke-linejoin="miter" d="M5 10c0-1.8856 0-2.8284 0.5858-3.4142C6.1716 6 7.1144 6 9 6h6c1.8856 0 2.8284 0 3.4142 0.5858C19 7.1716 19 8.1144 19 10v6c0 1.8856 0 2.8284-0.5858 3.4142S16.8856 20 15 20H9c-1.8856 0-2.8284 0-3.4142-0.5858C5 18.8284 5 17.8856 5 16z" />
            <path d="M5 17h8M19 17h-2" />
        </symbol>
        <symbol id="shopping-cart" viewBox="0 0 24 24" stroke-width="1.5" stroke="currentColor" stroke-linecap="round" stroke-linejoin="round" fill="none">
            <path d="M3 11h4M21 11H11" />
            <path d="M10 14h4" />
            <path d="M18 9 15 3" />
            <path d="M6 9 9 3" />
            <path stroke-linejoin="miter" d="M20.0164 16.2572c-0.487 2.2725-0.7305 3.4088-1.5556 4.0758S16.4737 21 14.1495 21h-4.299c-2.3241 0-3.4862 0-4.3112-0.667-0.8251-0.667-1.0686-1.8033-1.5556-4.0758l-0.4286-2C2.8367 10.9043 2.4775 9.2279 3.378 8.114 4.2786 7 5.993 7 9.422 7h5.1561c3.429 0 5.1434 0 6.044 1.114 0.6708 0.8298 0.6426 1.9716 0.2876 3.886" />
        </symbol>
        <symbol id="book-2" viewBox="0 0 24 24" stroke-width="1.5" stroke="currentColor" stroke-linecap="round" fill="none">
            <path stroke-linecap="butt" d="M19.8978 16h-12c-0.93 0-1.395 0-1.7765 0.1022C5.086 16.3796 4.2774 17.1883 4 18.2235" />
            <path d="M8 7h8" />
            <path d="M8 10.5h5" />
            <path d="M19.5 19H8" />
            <path d="M10 22c-2.8284 0-4.2426 0-5.1213-0.8787C4 20.2426 4 18.8284 4 16V8c0-2.8284 0-4.2426 0.8787-5.1213C5.7574 2 7.1716 2 10 2h4c2.8284 0 4.2426 0 5.1213 0.8787C20 3.7574 20 5.1716 20 8M14 22c2.8284 0 4.2426 0 5.1213-0.8787S20 18.8284 20 16v-4" />
        </symbol>
        <symbol id="balls" viewBox="0 0 24 24" stroke-width="1.5" stroke="currentColor" stroke-linecap="round" fill="none">
            <path d="M16.0201 8.0768c-2.0185 0.1942-4.1635 0.7995-5.6536 2.2897-1.4902 1.4901-2.0955 3.6351-2.2897 5.6536M16.0201 8.0768c1.169-0.1124 2.2956-0.087 3.2279-0.0157 1.4558 0.1113 2.5796 1.2351 2.6909 2.6909 0.0713 0.9323 0.0967 2.0589-0.0157 3.2279M16.0201 8.0768l5.9031 5.9031M21.9232 13.9799c-0.1942 2.0185-0.7995 4.1635-2.2896 5.6537-1.4902 1.4901-3.6352 2.0954-5.6537 2.2896M13.9799 21.9232c-1.169 0.1124-2.2956 0.087-3.2279 0.0157-1.4558-0.1113-2.5796-1.2351-2.6909-2.6909-0.0713-0.9323-0.0967-2.0589 0.0157-3.2279M13.9799 21.9232 8.0768 16.0201" />
            <path stroke-linecap="butt" d="M14.9955 8.252c-0.0382-1.0234-0.3196-2.0528-0.8673-3.0015-1.0631-1.8413-2.8912-2.9656-4.8511-3.2032-1.3486-0.1634-2.7595 0.0929-4.0266 0.8245-3.1083 1.7946-4.1734 5.7693-2.3787 8.8777 1.1414 1.977 3.1648 3.1274 5.2862 3.2412" />
            <path stroke-linecap="butt" d="M9.2151 2c0 0-0.1385 2.3559 1.3566 5.1907 0.4577 0.8678 0.9565 1.5681 1.4283 2.122M3 5.928c0 0 1.9332 1.0466 3.4283 3.8813C7.9234 12.6441 7.7849 15 7.7849 15" />
            <path d="M12.5 17.5l5-5" />
            <path d="M15.5 12.5l2 2" />
            <path d="M12.5 15.5l2 2" />
            <path d="M14 14l2 2" />
        </symbol>
        <symbol id="arrow-up" viewBox="0 0 24 24" fill="none">
            <path stroke-width="1.5" stroke="currentColor" stroke-linecap="round" stroke-linejoin="round" d="M19 15 12 9l-1.75 1.5M5 15l2.3333-2" />
        </symbol>
        <symbol id="arrow-right" viewBox="0 0 24 24" fill="none">
            <path stroke-width="1.5" stroke="currentColor" stroke-linecap="round" stroke-linejoin="round" d="M9 5l2 2.3333M9 19l6-7-1.5-1.75" />
        </symbol>
        <symbol id="arrow-left" viewBox="0 0 24 24" fill="none">
            <path stroke-width="1.5" stroke="currentColor" stroke-linecap="round" stroke-linejoin="round" d="M15 19 9 12l1.5-1.75M15 5 13 7.3333" />
        </symbol>
        <symbol id="arrow-down" viewBox="0 0 24 24" fill="none">
            <path stroke-width="1.5" stroke="currentColor" stroke-linecap="round" stroke-linejoin="round" d="M19 9l-7 6-1.75-1.5M5 9l2.3333 2" />
        </symbol>
        <symbol id="wineglass" viewBox="0 0 24 24" fill="none">
            <path fill="#fff" d="M12.75 15.2856c0-0.4142-0.3358-0.75-0.75-0.75s-0.75 0.3358-0.75 0.75zM15.75 21.7499c0.4142 0 0.75-0.3358 0.75-0.75s-0.3358-0.75-0.75-0.75zM8.25 20.2499c-0.4142 0-0.75 0.3358-0.75 0.75s0.3358 0.75 0.75 0.75zM8 3.75c0.4142 0 0.75-0.3358 0.75-0.75S8.4142 2.25 8 2.25zM12 2.25c-0.4142 0-0.75 0.3358-0.75 0.75S11.5858 3.75 12 3.75zM11.25 15.2856v5.7143h1.5v-5.7143zM15.75 20.2499H12v1.5h3.75zM12 20.2499H8.25v1.5H12zM18.25 4.8947V8h1.5V4.8947zM5.75 8V4.8947l-1.5 0V8zM12 14.25c-3.4518 0-6.25-2.7982-6.25-6.25h-1.5c0 4.2802 3.4698 7.75 7.75 7.75zM18.25 8c0 3.4518-2.7982 6.25-6.25 6.25v1.5c4.2802 0 7.75-3.4698 7.75-7.75zM17.1053 3.75c0.6322 0 1.1447 0.5125 1.1447 1.1447l1.5 0c0-1.4606-1.1841-2.6447-2.6447-2.6447zM6.8947 2.25C5.4341 2.25 4.25 3.4341 4.25 4.8947l1.5 0C5.75 4.2625 6.2625 3.75 6.8947 3.75zM6.8947 3.75H8v-1.5H6.8947zM12 3.75h5.1053v-1.5H12z" />
            <path stroke-width="1.5" stroke="currentColor" stroke-linecap="round" d="M5.5 9.0001c0 0 2.0812-0.9127 3.5-1 1.2326-0.0758 2.1163 0.4621 3 1M18.5 9.0001c0 0-2.0812 0.9127-3.5 1" />
        </symbol>
        <symbol id="adhesive-plaster" viewBox="0 0 24 24" fill="#fff">
            <path stroke-width="1.5" stroke="currentColor" stroke-linecap="round" fill="none" d="M13.5 7.6421 9.0711 3.2132c-1.6176-1.6176-4.2403-1.6176-5.8579 0-1.6176 1.6176-1.6176 4.2403 0 5.8579l11.7157 11.7157c1.6176 1.6176 4.2403 1.6176 5.8579 0s1.6176-4.2403 0-5.8579l-4.3579-4.3578" />
            <path stroke-width="1.5" stroke="currentColor" stroke-linecap="round" fill="none" d="M12 17.8579 9.071 20.7868c-1.6176 1.6176-4.2402 1.6176-5.8578 0C2.9711 20.5448 2.7653 20.2803 2.5957 20M6.1421 12 3.2132 14.9289C2.8908 15.2513 2.6326 15.6137 2.4387 16M12 6.1421l2.9289-2.9289c1.6176-1.6176 4.2402-1.6176 5.8578 0 1.6177 1.6176 1.6177 4.2403 0 5.8579L17.8578 12" />
            <path d="M15.8414 12.8714c0.3075 0.3076 0.3075 0.8062 0 1.1138-0.3076 0.3075-0.8062 0.3075-1.1137 0-0.3076-0.3076-0.3076-0.8062 0-1.1138 0.3075-0.3075 0.8061-0.3075 1.1137 0z" />
            <path d="M12.1289 9.159c-0.3075-0.3076-0.8062-0.3076-1.1137 0-0.3076 0.3075-0.3076 0.8061 0 1.1137 0.3075 0.3075 0.8062 0.3075 1.1137 0 0.3076-0.3076 0.3076-0.8062 0-1.1137z" />
            <path d="M16.7695 15.6558c0.3076 0.3075 0.3076 0.8062 0 1.1137-0.3075 0.3076-0.8062 0.3076-1.1137 0-0.3076-0.3075-0.3076-0.8062 0-1.1137 0.3075-0.3076 0.8062-0.3076 1.1137 0z" />
            <path d="M9.3446 8.2308c-0.3076-0.3075-0.8062-0.3075-1.1138 0-0.3075 0.3076-0.3075 0.8062 0 1.1138 0.3076 0.3075 0.8062 0.3075 1.1138 0 0.3075-0.3076 0.3075-0.8062 0-1.1138z" />
            <path d="M13.057 11.9433c0.3076 0.3076 0.3076 0.8062 0 1.1137-0.3075 0.3076-0.8061 0.3076-1.1137 0-0.3075-0.3075-0.3075-0.8061 0-1.1137 0.3076-0.3075 0.8062-0.3075 1.1137 0z" />
            <path d="M13.9852 14.7277c0.3075 0.3075 0.3075 0.8061 0 1.1137-0.3076 0.3075-0.8062 0.3075-1.1138 0-0.3075-0.3076-0.3075-0.8062 0-1.1137 0.3076-0.3076 0.8062-0.3076 1.1138 0z" />
            <path d="M10.2727 11.0152c-0.3076-0.3076-0.8062-0.3076-1.1137 0-0.3076 0.3075-0.3076 0.8062 0 1.1137 0.3075 0.3076 0.8061 0.3076 1.1137 0 0.3075-0.3075 0.3075-0.8062 0-1.1137z" />
        </symbol>
        <symbol id="camera" viewBox="0 0 24 24" stroke-width="1.5" stroke="currentColor" stroke-linecap="round" fill="none">
            <circle cx="12" cy="13" r="3" />
            <path d="M3.0001 12.9999c0-2.8089-2e-4-4.2132 0.674-5.2221 0.2918-0.4367 0.6668-0.8117 1.1036-1.1036C5.7866 6.0001 7.191 6.0001 10 6.0001l4 0c2.8089 0 4.2133 0 5.2222 0.6741 0.4368 0.2919 0.8118 0.6669 1.1036 1.1036 0.6742 1.0089 0.6743 2.4132 0.6743 5.2221s0 4.2134-0.6741 5.2223c-0.2919 0.4367-0.6669 0.8117-1.1036 1.1036-1.0089 0.6741-2.4134 0.6741-5.2223 0.6741h-4c-2.8089 0-4.2134 0-5.2223-0.6741-0.4367-0.2919-0.8117-0.6669-1.1036-1.1036-0.2318-0.347-0.3839-0.7407-0.4837-1.2223" />
            <path d="M18 10h-0.5" />
            <path d="M14.5 3.5h-5" />
        </symbol>
        <symbol id="confetti" viewBox="0 0 24 24" stroke="currentColor" fill="none">
            <path stroke-width="1.5" stroke-linecap="round" d="M13.3057 18.2975 8.2372 19.987c-2.7654 0.9218-4.1481 1.3827-4.878 0.6528-0.7298-0.7299-0.2689-2.1126 0.6529-4.878l1.6895-5.0685c0.766-2.298 1.149-3.4471 2.0552-3.661 0.9063-0.214 1.7627 0.6425 3.4756 2.3553l3.379 3.379c1.7128 1.7129 2.5693 2.5693 2.3553 3.4756" />
            <path stroke-width="1.5" stroke-linecap="round" d="M12.2351 18.3461c0 0-0.7581-2.2812-0.7581-3.7909 0-1.5098 0.7581-3.7909 0.7581-3.7909M8.0652 19.4833c0 0-0.6404-2.7519-0.7582-4.549-0.1947-2.9693 0.7582-7.5818 0.7582-7.5818" />
            <path stroke-width="1.5" stroke-linecap="round" d="M14.5093 10.0061l0.144-0.72c0.1453-0.7269 0.6691-1.3201 1.3723-1.5545 0.7033-0.2345 1.227-0.8277 1.3724-1.5546l0.144-0.72" />
            <path stroke-width="1.5" stroke-linecap="round" d="M17.5693 13.2533l0.2129 0.1229c0.6571 0.3794 1.4833 0.2957 2.051-0.2077 0.5141-0.4559 1.2462-0.5715 1.8758-0.2962l0.2915 0.1274" />
            <path stroke-width="1.5" stroke-linecap="round" d="M9.7951 2.779C9.4576 3.3311 9.5422 4.0425 9.9998 4.5l0.0978 0.0979c0.3932 0.3931 0.5382 0.9707 0.3773 1.503" />
            <path stroke="none" fill="#fff" d="M6.9276 3.9408c0.2095-0.2095 0.5491-0.2095 0.7586 0 0.2094 0.2095 0.2094 0.5491 0 0.7585-0.2095 0.2095-0.5491 0.2095-0.7586 0-0.2095-0.2094-0.2095-0.549 0-0.7585z" />
            <path stroke="none" fill="#fff" d="M12.1571 7.1571c0.2095-0.2095 0.5491-0.2095 0.7586 0 0.2094 0.2095 0.2094 0.5491 0 0.7586-0.2095 0.2094-0.5491 0.2094-0.7586 0-0.2095-0.2095-0.2095-0.5491 0-0.7586z" />
            <path stroke="none" fill="#fff" d="M17.1571 10.1571c0.2095-0.2095 0.5491-0.2095 0.7586 0 0.2094 0.2095 0.2094 0.5491 0 0.7586-0.2095 0.2094-0.5491 0.2094-0.7586 0-0.2095-0.2095-0.2095-0.5491 0-0.7586z" />
            <path stroke="none" fill="#fff" d="M19.0582 15.3134c0.2095-0.2095 0.5491-0.2095 0.7586 0 0.2094 0.2094 0.2094 0.549 0 0.7585-0.2095 0.2095-0.5491 0.2095-0.7586 0-0.2094-0.2095-0.2094-0.5491 0-0.7585z" />
            <path stroke-linejoin="round" d="M19.3615 7.7144c-0.6703 0.6702-0.1893 2.6136-0.1893 2.6136s1.9434 0.481 2.6137-0.1893c0.7099-0.7099 0.3082-1.6416-0.7857-1.6387 3e-3-1.0938-0.9288-1.4955-1.6387-0.7856z" />
            <path d="M15.1884 3.4175 15.1608 3.5146c-0.0303 0.1067-0.0455 0.16-0.0383 0.2123 71e-4 0.0524 0.0358 0.0979 0.0932 0.1888l0.0522 0.0827c0.2019 0.32 0.3028 0.4799 0.234 0.6107-0.0687 0.1309-0.2617 0.1459-0.6475 0.1761l-0.0998 78e-4c-0.1097 85e-4-0.1645 0.0128-0.2124 0.038-0.0479 0.0252-0.0835 0.0684-0.1547 0.1549l-0.0649 0.0788c-0.2506 0.3044-0.3759 0.4565-0.5188 0.437-0.1429-0.0196-0.2088-0.198-0.3406-0.5547l-0.0341-0.0923c-0.0375-0.1014-0.0562-0.1521-0.093-0.1889-0.0368-0.0367-0.0875-0.0555-0.1889-0.0929l-0.0923-0.0341c-0.3567-0.1318-0.5351-0.1977-0.5546-0.3406-0.0196-0.143 0.1326-0.2683 0.437-0.5189l0.0787-0.0648c0.0865-0.0712 0.1298-0.1068 0.1549-0.1548 0.0252-0.0479 0.0295-0.1027 0.0381-0.2123l78e-4-0.0999c0.0301-0.3858 0.0452-0.5787 0.176-0.6475 0.1308-0.0688 0.2908 0.0322 0.6107 0.234l0.0828 0.0523c0.0909 0.0573 0.1363 0.086 0.1887 0.0932 0.0523 71e-4 0.1057-8e-3 0.2123-0.0383l0.0972-0.0276c0.3753-0.1067 0.563-0.16 0.6634-0.0596 0.1004 0.1005 0.0471 0.2881-0.0595 0.6635z" />
        </symbol>
        <symbol id="donut" viewBox="0 0 24 24" stroke-width="1.5" stroke="currentColor" stroke-linecap="round" fill="none">
            <circle cx="12" cy="12" r="3" />
            <path stroke-linecap="butt" d="M2 13c0 0 2.2009 2 4 2 1.212 0 2.6063-0.9076 3.3873-1.5" />
            <path stroke-linecap="butt" d="M14 14.2236C14.4713 14.6389 15.0875 15 15.8053 15c1.6895 0 1.6895-2 3.3789-2 1.0776 0 1.926 0.8136 2.3993 1.4029" />
            <path d="M14.5 7 16 5" />
            <path d="M19 7l1-1" />
            <path d="M12 5 11 4" />
            <path d="M10.5 7 9.134 7.366" />
            <path d="M16.6497 8.9766l0.0664 1.4127" />
            <path d="M20.6777 10.085l-1.6781 1.4779" />
            <path d="M7 5 6 4" />
            <path d="M6.7925 9.1439 6.2072 7.8564" />
            <path d="M5.665 12.6415l0.8352-1.1413" />
            <path d="M3.6827 10.3496 3.604 8.9376" />
            <path d="M7 20.6622C8.4709 21.513 10.1786 22 12 22c5.5228 0 10-4.4772 10-10 0-5.5228-4.4772-10-10-10C6.4772 2 2 6.4772 2 12c0 1.8214 0.487 3.5291 1.3378 5" />
        </symbol>
        <symbol id="eye-open" viewBox="0 0 24 24" stroke-width="1.5" stroke="currentColor" fill="none">
            <path stroke-linecap="round" d="M9 4.4596C9.9115 4.1697 10.9104 4 12 4c4.1819 0 7.028 2.4996 8.7251 4.7043C21.575 9.8085 22 10.3606 22 12s-0.425 2.1915-1.2749 3.2957C19.028 17.5004 16.1819 20 12 20s-7.028-2.4996-8.7251-4.7043C2.425 14.1915 2 13.6394 2 12s0.425-2.1915 1.2749-3.2957C3.7561 8.0791 4.3297 7.4303 5 6.8214" />
            <path d="M15 12c0 1.6569-1.3431 3-3 3s-3-1.3431-3-3 1.3431-3 3-3 3 1.3431 3 3z" />
        </symbol>
        <symbol id="eye-closed" viewBox="0 0 24 24" fill="none">
            <path fill="#fff" d="M2.6894 6.7046c-0.1632-0.3808-0.6041-0.5571-0.9848-0.394-0.3808 0.1632-0.5571 0.6041-0.394 0.9848zM15.5872 13.3287l-0.2747-0.6979zM9.0415 13.7377c0.2259-0.3471 0.1275-0.8117-0.2197-1.0376-0.3471-0.2259-0.8117-0.1276-1.0376 0.2196zM6.3714 15.091c-0.226 0.3471-0.1276 0.8117 0.2196 1.0376 0.3472 0.2259 0.8117 0.1276 1.0376-0.2196zM22.6894 7.2954c0.1631-0.3807-0.0132-0.8216-0.394-0.9848-0.3807-0.1631-0.8216 0.0132-0.9848 0.394zM19 11.1288 18.4867 10.582v0zM19.9697 13.1592c0.2929 0.2929 0.7677 0.2929 1.0606 0s0.2929-0.7678 0-1.0607zM11.25 16.5c0 0.4142 0.3358 0.75 0.75 0.75s0.75-0.3358 0.75-0.75zM16.3714 15.909c0.2259 0.3472 0.6905 0.4455 1.0376 0.2196 0.3472-0.2259 0.4455-0.6905 0.2196-1.0376zM5.5303 11.6592c0.2929-0.2929 0.2929-0.7678 0-1.0607-0.2929-0.2929-0.7677-0.2929-1.0606 0zM2.9697 12.0985c-0.2929 0.2929-0.2929 0.7678 0 1.0607 0.2929 0.2929 0.7677 0.2929 1.0606 0zM12 13.25c-3.2239 0-5.5387-1.6054-7.0754-3.2603-0.7681-0.8273-1.3313-1.6569-1.702-2.2796-0.1849-0.3106-0.3207-0.5678-0.4092-0.7447C2.7692 6.877 2.7369 6.8088 2.7163 6.7641 2.706 6.7418 2.6986 6.7254 2.6941 6.7153c-22e-4-5e-3-37e-4-85e-4-45e-4-0.0103-4e-4-9e-4-6e-4-14e-4-7e-4-15e-4 0 0 0 1e-4 1e-4 2e-4 0 1e-4 1e-4 3e-4 2e-4 4e-4 0 2e-4 2e-4 5e-4-0.6892 0.2959S1.3108 7.2958 1.3109 7.2961c1e-4 1e-4 2e-4 5e-4 4e-4 8e-4 2e-4 6e-4 5e-4 13e-4 9e-4 21e-4 7e-4 16e-4 16e-4 37e-4 26e-4 61e-4 22e-4 49e-4 51e-4 0.0115 87e-4 0.0197 73e-4 0.0164 0.0177 0.0393 0.031 0.0683 0.0268 0.0579 0.0658 0.1401 0.1173 0.2431 0.1029 0.2059 0.2561 0.4955 0.4619 0.8412 0.4106 0.6898 1.0349 1.6102 1.8917 2.5329C5.5387 12.8554 8.2239 14.75 12 14.75zM15.3125 12.6308C14.3421 13.0128 13.2417 13.25 12 13.25v1.5c1.4382 0 2.7246-0.2758 3.8619-0.7234zM7.7842 12.9197 6.3714 15.091l1.2572 0.818 1.4128-2.1713zM22 7c-0.6894-0.2954-0.6893-0.2956-0.6892-0.2957 0-1e-4 0-2e-4 1e-4-3e-4 0-1e-4 1e-4-2e-4 1e-4-3e-4 1e-4-2e-4 1e-4-2e-4 1e-4-1e-4-1e-4 2e-4-4e-4 9e-4-1e-3 22e-4-11e-4 24e-4-31e-4 69e-4-6e-3 0.0134-58e-4 0.013-0.0152 0.0339-0.0283 0.0621-0.0263 0.0563-0.0672 0.1417-0.1232 0.2514-0.112 0.2196-0.2836 0.5356-0.5172 0.9105-0.4685 0.752-1.1791 1.7288-2.1487 2.6388l1.0266 1.0937c1.089-1.0222 1.8784-2.1098 2.3952-2.9392 0.2591-0.4158 0.4515-0.7697 0.5804-1.0224 0.0644-0.1264 0.1131-0.2277 0.1464-0.299 0.0166-0.0357 0.0294-0.0639 0.0384-0.0841 45e-4-0.01 81e-4-0.0181 0.0107-0.024 13e-4-3e-3 23e-4-55e-4 32e-4-74e-4 4e-4-1e-3 7e-4-18e-4 1e-3-25e-4 2e-4-3e-4 3e-4-6e-4 4e-4-9e-4 1e-4-2e-4 2e-4-4e-4 2e-4-4e-4 1e-4-2e-4 2e-4-4e-4-0.6892-0.2958zM18.4867 10.582c-0.859 0.8062-1.9128 1.5523-3.1742 2.0488l0.5494 1.3958c1.4736-0.58 2.6847-1.4436 3.6514-2.3509zM18.4697 11.6592l1.5 1.5 1.0606-1.0607-1.5-1.5zM11.25 14v2.5h1.5V14zM14.9586 13.7377l1.4128 2.1713 1.2572-0.818-1.4128-2.1713zM4.4697 10.5985l-1.5 1.5 1.0606 1.0607 1.5-1.5z" />
        </symbol>
        <symbol id="gift" viewBox="0 0 24 24" stroke-width="1.5" stroke="currentColor" stroke-linecap="round" fill="none">
            <path d="M22 12H2" />
            <path d="M12 2v20" />
            <path d="M13 12c0 2.2091 1.7909 4 4 4" />
            <path d="M11 12c0 2.2091-1.7909 4-4 4" />
            <path d="M12 10.0352c0-1.4899 1.014-2.7886 2.4594-3.15 1.6037-0.4009 3.0564 1.0518 2.6554 2.6555-0.3613 1.4454-1.66 2.4594-3.1499 2.4594H12z" />
            <path d="M12.0001 10.0352c0-1.4899-1.014-2.7886-2.4594-3.15C7.937 6.4843 6.4843 7.937 6.8852 9.5407c0.3614 1.4454 1.6601 2.4594 3.15 2.4594h1.9649z" />
            <path d="M22 12c0 4.714 0 7.0711-1.4645 8.5355C19.0711 22 16.714 22 12 22c-4.714 0-7.0711 0-8.5355-1.4645C2 19.0711 2 16.714 2 12 2 7.286 2 4.9289 3.4645 3.4645 4.9289 2 7.286 2 12 2c4.714 0 7.0711 0 8.5355 1.4645 0.9738 0.9737 1.3001 2.342 1.4094 4.5355" />
        </symbol>
        <symbol id="hand-money" viewBox="0 0 24 24" stroke-width="1.5" stroke="currentColor" stroke-linecap="round" fill="none">
            <path stroke-linecap="butt" d="M17.4142 10.4142C18 9.8284 18 8.8856 18 7s0-2.8284-0.5858-3.4142M17.4142 10.4142C16.8284 11 15.8856 11 14 11h-4c-1.8856 0-2.8284 0-3.4142-0.5858M17.4142 10.4142c0 0 0 0 0 0zM17.4142 3.5858C16.8284 3 15.8856 3 14 3h-4C8.1144 3 7.1716 3 6.5858 3.5858M17.4142 3.5858c0 0 0 0 0 0zM6.5858 3.5858C6 4.1716 6 5.1144 6 7s0 2.8284 0.5858 3.4142M6.5858 3.5858c0 0 0 0 0 0zM6.5858 10.4142c0 0 0 0 0 0z" />
            <path d="M13 7c0 0.5523-0.4477 1-1 1s-1-0.4477-1-1 0.4477-1 1-1 1 0.4477 1 1z" />
            <path d="M18 6c-1.6569 0-3-1.3431-3-3" />
            <path d="M18 8c-1.6569 0-3 1.3431-3 3" />
            <path d="M6 6c1.6569 0 3-1.3431 3-3" />
            <path d="M6 8c1.6569 0 3 1.3431 3 3" />
            <path d="M4 21.3884h2.2599c1.0109 0 2.0326 0.1053 3.0164 0.308 1.7403 0.3585 3.5725 0.4019 5.3306 0.1174M13.6764 18.5172c0.1198-0.0139 0.2346-0.0298 0.3442-0.0473 0.9114-0.1454 1.6764-0.6324 2.3768-1.1615l1.8072-1.3651c0.6371-0.4813 1.5827-0.4814 2.2199-3e-4 0.5737 0.4332 0.7491 1.1464 0.3864 1.7277-0.4229 0.678-1.0188 1.5453-1.591 2.0752M13.6764 18.5172c-0.0361 42e-4-0.0726 82e-4-0.1096 0.012M13.6764 18.5172c0.1458-0.0312 0.2905-0.1212 0.4264-0.2397 0.6432-0.5614 0.6838-1.5075 0.1257-2.1344-0.1294-0.1454-0.281-0.2667-0.4494-0.3672-2.7974-1.6685-7.1497-0.3977-9.7791 1.467M13.6764 18.5172c-0.0365 78e-4-0.0731 0.012-0.1096 0.012M13.5668 18.5292c-0.5234 0.0537-1.1356 0.0676-1.815 34e-4" />
        </symbol>
        <symbol id="house" viewBox="0 0 24 24" stroke-width="1.5" stroke="currentColor" stroke-linecap="round" fill="none">
            <path d="M22 22H2" />
            <path d="M2 11 6.063 7.7497M22 11 13.8741 4.4993c-1.0957-0.8765-2.6525-0.8765-3.7482 0L9.344 5.1249" />
            <path d="M15.5 5.5v-2C15.5 3.2239 15.7239 3 16 3h2.5C18.7761 3 19 3.2239 19 3.5v5" />
            <path d="M4 22V9.5" />
            <path d="M20 9.5v4M20 22v-4.5" />
            <path stroke-linejoin="round" d="M15 22v-5c0-1.4142 0-2.1213-0.4393-2.5607C14.1213 14 13.4142 14 12 14s-2.1213 0-2.5607 0.4393M9 22v-5" />
            <path d="M14 9.5c0 1.1046-0.8954 2-2 2s-2-0.8954-2-2c0-1.1046 0.8954-2 2-2s2 0.8954 2 2z" />
        </symbol>
        <symbol id="trash-bin" viewBox="0 0 24 24" stroke-width="1.5" stroke="currentColor" stroke-linecap="round" fill="none">
            <path d="M9.1707 4c0.4118-1.1652 1.523-2 2.8292-2 1.3063 0 2.4175 0.8348 2.8293 2" />
            <path d="M20.5 6H3.4999" />
            <path d="M18.3735 15.3991c-0.177 2.6549-0.2655 3.9824-1.1305 4.7916C16.378 21 15.0476 21 12.3868 21h-0.7734c-2.6608 0-3.9912 0-4.8562-0.8093-0.865-0.8092-0.9535-2.1367-1.1305-4.7916L5.1668 8.5M18.8334 8.5l-0.2 3" />
            <path d="M9.5 11 10 16" />
            <path d="M14.5 11 14 16" />
        </symbol>
        <symbol id="user-id" viewBox="0 0 24 24" stroke-width="1.5" stroke="currentColor" stroke-linecap="round" fill="none">
            <circle cx="9" cy="9" r="2" />
            <path d="M13 15c0 1.1046 0 2-4 2s-4-0.8954-4-2 1.7909-2 4-2c2.2091 0 4 0.8954 4 2z" />
            <path d="M22 12c0 3.7712 0 5.6569-1.1716 6.8284C19.6569 20 17.7712 20 14 20h-4c-3.7712 0-5.6569 0-6.8284-1.1716C2 17.6569 2 15.7712 2 12 2 8.2288 2 6.3431 3.1716 5.1716 4.3431 4 6.2288 4 10 4h4c3.7712 0 5.6569 0 6.8284 1.1716C21.298 5.6412 21.5794 6.2255 21.748 7" />
            <path d="M19 12h-4" />
            <path d="M19 9h-5" />
            <path d="M19 15h-3" />
        </symbol>
        <symbol id="bell-bing" viewBox="0 0 24 24" stroke-width="1.5" stroke="currentColor" stroke-linecap="round" fill="none">
            <path d="M12 6v4" />
            <path d="M7.5 19c0.655 1.7478 2.4225 3 4.5 3 0.2445 0 0.4847-0.0173 0.7192-0.0508M16.5 19c-0.2671 0.7126-0.719 1.3428-1.3015 1.8393" />
            <path d="M9.1075 2.6741C9.9841 2.2419 10.9649 2 12 2c3.7274 0 6.7491 3.1362 6.7491 7.005v0.7046c0 0.8456 0.2412 1.6722 0.6931 2.3758l1.1074 1.7241c1.0116 1.5748 0.2394 3.7154-1.52 4.2134-4.6023 1.3028-9.4569 1.3028-14.0592 0-1.7593-0.498-2.5316-2.6386-1.52-4.2134l1.1074-1.7241c0.4519-0.7036 0.6931-1.5302 0.6931-2.3758l0-0.7046c0-1.0744 0.233-2.0923 0.6495-3.0022" />
        </symbol>
        <symbol id="balloon" viewBox="0 0 24 24" stroke-width="1.5" stroke="currentColor" stroke-linecap="round" fill="none">
            <path d="M8.0001 16.6066c1.1492 0.8598 2.5184 1.3808 3.9999 1.3932 4.142 0.0345 7.5937-3.92 7.5603-8.1955C19.5268 5.5287 16.142 2.0348 12 2.0003 7.858 1.9658 4.5273 5.4038 4.5608 9.6794 4.5698 10.8295 4.8125 11.9605 5.2433 13" />
            <path d="M15.5 9c-0.0133-1.6436-1.3564-2.9867-3-3" />
            <path d="M12 20.3502c0.3212 0 0.4818 0 0.5933-0.0219 0.6533-0.1284 1.0508-0.7726 0.8578-1.3899-0.033-0.1054-0.1091-0.2422-0.2615-0.5157M12 20.3502c-0.3212 0-0.4818 0-0.5933-0.0219-0.6533-0.1284-1.0508-0.7726-0.8578-1.3899 0.033-0.1054 0.1091-0.2422 0.2615-0.5157M12 20.3502V22.5" />
        </symbol>
        <symbol id="album" viewBox="0 0 24 24" stroke-width="1.5" stroke="currentColor" fill="none">
            <path stroke-linecap="round" d="M21.1935 16.793c-0.3498 2.4809-0.5246 3.7213-1.4218 4.4642C18.8745 22 17.5512 22 14.9046 22H9.0954c-2.6466 0-3.9699 0-4.8671-0.7428-0.8971-0.7429-1.072-1.9833-1.4218-4.4642l-0.423-3c-0.446-3.1636-0.669-4.7453 0.2788-5.7692C3.6102 7 5.2976 7 8.6724 7h6.6552c3.3748 0 5.0622 0 6.0101 1.0238 0.7488 0.8089 0.7668 1.966 0.5215 3.9762" />
            <path d="M19.5617 7c0.2287-1.3048-0.7754-2.5-2.1-2.5H6.5379C5.2132 4.5 4.2092 5.6952 4.4378 7" />
            <path d="M17.4999 4.5c0.0284-0.2591 0.0426-0.3887 0.0428-0.4957 23e-4-1.0236-0.7688-1.8837-1.7866-1.9929C15.6497 2 15.5194 2 15.2588 2H8.741C8.4804 2 8.35 2 8.2436 2.0114 7.2258 2.1206 6.4548 2.9807 6.457 4.0043 6.4573 4.1114 6.4715 4.2409 6.4998 4.5" />
            <circle cx="16.5" cy="11.5" r="1.5" />
            <path stroke-linecap="round" d="M19.9999 20l-2.8842-2.1486c-0.9301-0.6928-2.3153-0.7618-3.3391-0.1663l-0.2668 0.1552c-0.7114 0.4139-1.6794 0.3445-2.2942-0.1645l-3.8382-3.1769c-0.7661-0.6341-1.9949-0.668-2.8103-0.0775l-1.3239 0.9589" />
        </symbol>
        <symbol id="heart" viewBox="0 0 24 24" fill="none">
            <path fill="#fff" d="M12 5.5006 11.4596 6.0207c34e-4 35e-4 68e-4 69e-4 0.0102 0.0104zM8.9617 18.9109l-0.4643 0.589zM15.0383 18.9109l-0.4643-0.589zM7.0006 16.4209c-0.3198-0.2632-0.7925-0.2173-1.0557 0.1025-0.2632 0.3198-0.2173 0.7925 0.1025 1.0557zM2.342 13.4115c0.1987 0.3634 0.6545 0.4969 1.0179 0.2981 0.3634-0.1988 0.4969-0.6545 0.2981-1.0179zM13.4698 8.0303c0.2929 0.2929 0.7678 0.2928 1.0606-2e-4 0.2929-0.2929 0.2928-0.7678-2e-4-1.0606zM2.75 9.1371c0-2.1509 1.2154-3.9546 2.8744-4.7129 1.6117-0.7367 3.7773-0.5416 5.8352 1.5965l1.0808-1.0402C10.0985 2.4435 7.2641 2.0254 5.0008 3.06 2.7847 4.0729 1.25 6.425 1.25 9.1371zM8.4974 19.4999c0.5122 0.4038 1.0621 0.8344 1.6194 1.16C10.6739 20.9854 11.3096 21.25 12 21.25v-1.5c-0.3096 0-0.6739-0.1207-1.1264-0.3852-0.4523-0.2643-0.9215-0.6282-1.4475-1.0429zM15.5026 19.4999c1.4266-1.1247 3.2502-2.4133 4.6807-4.0241 1.4562-1.6397 2.5667-3.6732 2.5667-6.3387h-1.5c0 2.1974-0.8992 3.8911-2.1883 5.3427-1.3148 1.4805-2.9721 2.6473-4.4877 3.8421zM22.75 9.1371c0-2.7121-1.5347-5.0642-3.7508-6.0771-2.2633-1.0346-5.0977-0.6165-7.5396 1.9205l1.0808 1.0402c2.0579-2.1381 4.2235-2.3332 5.8352-1.5965 1.659 0.7583 2.8744 2.562 2.8744 4.7129zM14.574 18.3219c-0.5261 0.4147-0.9953 0.7786-1.4476 1.0429C12.6739 19.6293 12.3096 19.75 12 19.75v1.5c0.6904 0 1.3261-0.2646 1.8832-0.5901 0.5573-0.3256 1.1071-0.7562 1.6194-1.16zM9.4261 18.3219c-0.796-0.6274-1.6048-1.2256-2.4255-1.901l-0.9532 1.1582c0.8303 0.6833 1.7073 1.3353 2.45 1.9208zM3.658 12.6917C3.0968 11.6656 2.75 10.5033 2.75 9.1371h-1.5c0 1.6375 0.42 3.0456 1.092 4.2744zM11.4698 6.0311l2 1.9992 1.0604-1.0608-2-1.9993z" />
        </symbol>
        <symbol id="briefcase" viewBox="0 0 24 24" fill="none">
            <path stroke-width="2" stroke="currentColor" stroke-linecap="round" stroke-linejoin="round" d="M3.0275 10.022l3.6577 2.9262c0.4873 0.3898 0.731 0.5847 1.0023 0.7233 0.2407 0.123 0.4969 0.2129 0.7617 0.2672C8.7477 14 9.0597 14 9.6838 14h4.6325c0.624 0 0.936 0 1.2345-0.0613 0.2648-0.0543 0.521-0.1442 0.7617-0.2672 0.2713-0.1386 0.515-0.3335 1.0023-0.7233l3.6577-2.9262M3.0275 10.022C3 10.4895 3 11.0642 3 11.8v4.4c0 1.6802 0 2.5202 0.327 3.162 0.2876 0.5645 0.7465 1.0234 1.311 1.311C5.2798 21 6.1198 21 7.8 21h8.4c1.6802 0 2.5202 0 3.162-0.327 0.5645-0.2876 1.0234-0.7465 1.311-1.311C21 18.7202 21 17.8802 21 16.2v-4.4c0-0.7358 0-1.3105-0.0275-1.778M3.0275 10.022C3.0627 9.4221 3.1432 8.9987 3.327 8.638 3.6146 8.0735 4.0735 7.6146 4.638 7.327 5.2798 7 6.1198 7 7.8 7H8M20.9725 10.022c-0.0352-0.5999-0.1157-1.0233-0.2995-1.384-0.2876-0.5645-0.7465-1.0234-1.311-1.311C18.7202 7 17.8802 7 16.2 7H16M8 7V6c0-1.6569 1.3431-3 3-3h2c1.6569 0 3 1.3431 3 3v1M8 7h8" />
        </symbol>
        <symbol id="book" viewBox="0 0 24 24" stroke-width="1.5" stroke="currentColor" stroke-linecap="round" fill="none">
            <path stroke-linecap="butt" d="M19.8978 16h-12c-0.93 0-1.395 0-1.7765 0.1022C5.086 16.3796 4.2774 17.1883 4 18.2235" />
            <path d="M8 7h8" />
            <path d="M8 10.5h5" />
            <path d="M13 16v3.5309c0 0.2756 0 0.4134-0.0949 0.4691-0.0948 0.0557-0.2245-59e-4-0.484-0.1292l-1.2422-0.59c-0.0878-0.0417-0.1317-0.0626-0.1789-0.0626s-0.0911 0.0209-0.1789 0.0626l-1.2422 0.59C9.3194 19.9941 9.1897 20.0557 9.0948 20 9 19.9443 9 19.8065 9 19.5309V16.45" />
            <path d="M10 22c-2.8284 0-4.2426 0-5.1213-0.8787C4 20.2426 4 18.8284 4 16V8c0-2.8284 0-4.2426 0.8787-5.1213C5.7574 2 7.1716 2 10 2h4c2.8284 0 4.2426 0 5.1213 0.8787C20 3.7574 20 5.1716 20 8M14 22c2.8284 0 4.2426 0 5.1213-0.8787S20 18.8284 20 16v-4" />
        </symbol>
    <symbol id="fastfood" viewBox="-2.6 0 34 34">
            <g id="Frame_25" fill="#fff" transform="translate(-14 -11)" data-name="Frame 25" fill-rule="evenodd">
                <path id="Path_155" d="M27.778 29h-5.556a4.224 4.224 0 0 0-4.043 3H31.82a4.224 4.224 0 0 0-4.042-3zM22.222 27A6.222 6.222 0 0 0 16 33.222 0.778 0.778 0 0 0 16.778 34h16.444A0.778 0.778 0 0 0 34 33.222 6.222 6.222 0 0 0 27.778 27z" data-name="Path 155" />
                <path id="Path_156" d="M34 36H16a5 5 0 0 0 5 5h8a5 5 0 0 0 5-5zM31.236 38H18.764A2.993 2.993 0 0 0 21 39h8a2.993 2.993 0 0 0 2.236-1z" data-name="Path 156" />
                <path id="Path_157" d="M33 34H17a1 1 0 0 0 0 2h16a1 1 0 0 0 0-2zM17 32a3 3 0 0 0 0 6h16a3 3 0 0 0 0-6z" data-name="Path 157" />
                <path id="Path_158" d="M23.222 20.3a3 3 0 0 1 2.986-3.3h13.584a3 3 0 0 1 2.986 3.3l-2.178 22a3 3 0 0 1-2.983 2.7h-9.234a3 3 0 0 1-2.983-2.7l-0.281-2.84 1.99-0.2 0.281 2.84a1 1 0 0 0 1 0.9h9.233a1 1 0 0 0 1-0.9l2.176-22a1 1 0 0 0-1-1.1H26.208a1 1 0 0 0-1 1.1l0.793 8.017-1.99 0.2z" data-name="Path 158" />
                <path id="Path_159" d="M32 32l-6.349 5.442a1 1 0 0 1-1.3 0L18 32z" data-name="Path 159" fill-rule="nonzero" />
                <path id="Path_160" d="M32 32H18l6.349 5.442a1 1 0 0 0 1.3 0zM26.594 34h-3.188L25 35.366z" data-name="Path 160" />
                <path id="Path_161" d="M37 11a1 1 0 0 1 1 1v6a1 1 0 0 1-2 0v-6a1 1 0 0 1 1-1z" data-name="Path 161" />
            </g>
        </symbol>
        <symbol id="utensils" viewBox="0 0 24 24" fill="currentColor">
            <path d="M15.53 14.13a1 1 0 0 0-1.42 0 1 1 0 0 0 0 1.41l6.18 6.18a1 1 0 0 0 1.42 0 1 1 0 0 0 0-1.41zM16.76 11.64a3 3 0 0 0 2.12-0.88l2.83-2.83a1 1 0 0 0 0-1.41 1 1 0 0 0-1.42 0l-2.83 2.83a1 1 0 0 1-1.41 0l3.54-3.54a1 1 0 0 0 0-1.41 1 1 0 0 0-1.42 0l-3.53 3.53v0a1 1 0 0 1 0-1.41l2.82-2.83a1 1 0 1 0-1.41-1.41l-2.83 2.83a3 3 0 0 0 0 4.24v0L12 10.59 10.44 9.05a4.16 4.16 0 0 0-0.74-5C8.26 2.61 4.53 1 2.77 2.79S2.6 8.27 4 9.72A4.36 4.36 0 0 0 6.94 11h0.14A3.88 3.88 0 0 0 9 10.46L10.57 12 2.29 20.28a1 1 0 1 0 1.42 1.41l9-9v0 0l1.92-1.92a3 3 0 0 0 2.13 0.87zM8.43 8.44A1.93 1.93 0 0 1 7 9 2.26 2.26 0 0 1 5.46 8.3C4.38 7.22 3.62 4.77 4.19 4.2A1 1 0 0 1 4.85 4 5.87 5.87 0 0 1 8.29 5.47 2.12 2.12 0 0 1 8.43 8.44z" />
        </symbol>

</svg>