<svg xmlns="http://www.w3.org/2000/svg" style="display:none">

  <symbol id="briefcase" viewBox="0 0 24 24" fill="none" stroke="currentColor" stroke-width="2" stroke-linecap="round" stroke-linejoin="round">
    <rect x="2" y="7" width="20" height="14" rx="2" ry="2"/>
    <path d="M16 7V5a2 2 0 0 0-2-2h-4a2 2 0 0 0-2 2v2"/>
    <line x1="2" y1="13" x2="22" y2="13"/>
  </symbol>

  <symbol id="laptop" viewBox="0 0 24 24" fill="none" stroke="currentColor" stroke-width="2" stroke-linecap="round" stroke-linejoin="round">
    <rect x="2" y="3" width="20" height="14" rx="2" ry="2"/>
    <line x1="2" y1="20" x2="22" y2="20"/>
  </symbol>

  <symbol id="trending-up" viewBox="0 0 24 24" fill="none" stroke="currentColor" stroke-width="2" stroke-linecap="round" stroke-linejoin="round">
    <polyline points="23 6 13.5 15.5 8.5 10.5 1 18"/>
    <polyline points="17 6 23 6 23 12"/>
  </symbol>

  <symbol id="gift" viewBox="0 0 24 24" fill="none" stroke="currentColor" stroke-width="2" stroke-linecap="round" stroke-linejoin="round">
    <polyline points="20 12 20 22 4 22 4 12"/>
    <rect x="2" y="7" width="20" height="5"/>
    <line x1="12" y1="22" x2="12" y2="7"/>
    <path d="M12 7H7.5a2.5 2.5 0 0 1 0-5C11 2 12 7 12 7z"/>
    <path d="M12 7h4.5a2.5 2.5 0 0 0 0-5C13 2 12 7 12 7z"/>
  </symbol>

  <symbol id="plus-circle" viewBox="0 0 24 24" fill="none" stroke="currentColor" stroke-width="2" stroke-linecap="round" stroke-linejoin="round">
    <circle cx="12" cy="12" r="10"/>
    <line x1="12" y1="8" x2="12" y2="16"/>
    <line x1="8" y1="12" x2="16" y2="12"/>
  </symbol>

  <symbol id="utensils" viewBox="0 0 24 24" fill="none" stroke="currentColor" stroke-width="2" stroke-linecap="round" stroke-linejoin="round">
    <line x1="3" y1="2" x2="3" y2="22"/>
    <path d="M7 2v6a4 4 0 0 1-4 4"/>
    <path d="M7 2v6a4 4 0 0 0 4 4"/>
    <line x1="7" y1="12" x2="7" y2="22"/>
    <line x1="21" y1="2" x2="21" y2="22"/>
    <path d="M17 2v7h4"/>
  </symbol>

  <symbol id="car" viewBox="0 0 24 24" fill="none" stroke="currentColor" stroke-width="2" stroke-linecap="round" stroke-linejoin="round">
    <path d="M5 17H3a2 2 0 0 1-2-2V9a2 2 0 0 1 2-2h1l2-4h10l2 4h1a2 2 0 0 1 2 2v6a2 2 0 0 1-2 2h-2"/>
    <circle cx="7.5" cy="17" r="2.5"/>
    <circle cx="16.5" cy="17" r="2.5"/>
  </symbol>

  <symbol id="home" viewBox="0 0 24 24" fill="none" stroke="currentColor" stroke-width="2" stroke-linecap="round" stroke-linejoin="round">
    <path d="M3 9.5L12 3l9 6.5V20a1 1 0 0 1-1 1H4a1 1 0 0 1-1-1V9.5z"/>
    <polyline points="9 22 9 12 15 12 15 22"/>
  </symbol>

  <symbol id="heart" viewBox="0 0 24 24" fill="none" stroke="currentColor" stroke-width="2" stroke-linecap="round" stroke-linejoin="round">
    <path d="M20.84 4.61a5.5 5.5 0 0 0-7.78 0L12 5.67l-1.06-1.06a5.5 5.5 0 0 0-7.78 7.78l1.06 1.06L12 21.23l7.78-7.78 1.06-1.06a5.5 5.5 0 0 0 0-7.78z"/>
  </symbol>

  <symbol id="shopping-bag" viewBox="0 0 24 24" fill="none" stroke="currentColor" stroke-width="2" stroke-linecap="round" stroke-linejoin="round">
    <path d="M6 2L3 6v14a2 2 0 0 0 2 2h14a2 2 0 0 0 2-2V6l-3-4z"/>
    <line x1="3" y1="6" x2="21" y2="6"/>
    <path d="M16 10a4 4 0 0 1-8 0"/>
  </symbol>

  <symbol id="tv" viewBox="0 0 24 24" fill="none" stroke="currentColor" stroke-width="2" stroke-linecap="round" stroke-linejoin="round">
    <rect x="2" y="7" width="20" height="14" rx="2" ry="2"/>
    <polyline points="17 2 12 7 7 2"/>
  </symbol>

  <symbol id="book" viewBox="0 0 24 24" fill="none" stroke="currentColor" stroke-width="2" stroke-linecap="round" stroke-linejoin="round">
    <path d="M4 19.5A2.5 2.5 0 0 1 6.5 17H20"/>
    <path d="M6.5 2H20v20H6.5A2.5 2.5 0 0 1 4 19.5v-15A2.5 2.5 0 0 1 6.5 2z"/>
  </symbol>

  <symbol id="repeat" viewBox="0 0 24 24" fill="none" stroke="currentColor" stroke-width="2" stroke-linecap="round" stroke-linejoin="round">
    <polyline points="17 1 21 5 17 9"/>
    <path d="M3 11V9a4 4 0 0 1 4-4h14"/>
    <polyline points="7 23 3 19 7 15"/>
    <path d="M21 13v2a4 4 0 0 1-4 4H3"/>
  </symbol>

  <symbol id="minus-circle" viewBox="0 0 24 24" fill="none" stroke="currentColor" stroke-width="2" stroke-linecap="round" stroke-linejoin="round">
    <circle cx="12" cy="12" r="10"/>
    <line x1="8" y1="12" x2="16" y2="12"/>
  </symbol>

<symbol id="dashboard" viewBox="0 0 24 24" stroke-width="1.5" stroke="currentColor" stroke-linecap="round" stroke-linejoin="round" fill="none" clip-rule="evenodd" fill-rule="evenodd">
            <path d="M9.918 10.0005H7.082c-0.4161-34e-4-0.8166 0.1586-1.1133 0.4504C5.672 10.7427 5.5034 11.1404 5.5 11.5565v5.889c77e-4 0.8662 0.7158 1.5623 1.582 1.555h2.836c0.4161 35e-4 0.8166-0.1585 1.1133-0.4503s0.4653-0.6895 0.4687-1.1057v-5.888c-34e-4-0.4161-0.172-0.8138-0.4687-1.1056s-0.6972-0.4538-1.1133-0.4504z" />
            <path d="M9.918 4.0006H7.082C6.2333 3.9771 5.5256 4.6449 5.5 5.4936v1.014c0.0256 0.8487 0.7333 1.5165 1.582 1.493h2.836c0.8487 0.0236 1.5564-0.6443 1.582-1.493v-1.014c-0.0256-0.8487-0.7333-1.5165-1.582-1.493z" />
            <path d="M15.082 13.0007h2.835c0.4163 37e-4 0.817-0.1582 1.1139-0.45 0.2969-0.2919 0.4657-0.6897 0.4691-1.106v-5.888c-34e-4-0.4162-0.172-0.8139-0.4687-1.1057-0.2967-0.2918-0.6972-0.4538-1.1133-0.4503l-2.836 0c-0.4161-35e-4-0.8166 0.1585-1.1133 0.4503C13.672 4.7428 13.5034 5.1405 13.5 5.5567v5.888c34e-4 0.4161 0.172 0.8138 0.4687 1.1056s0.6972 0.4538 1.1133 0.4504z" />
            <path d="M15.082 19.0006h2.835c0.8491 0.0241 1.5574-0.6439 1.583-1.493v-1.014c-0.0256-0.8487-0.7333-1.5165-1.582-1.493h-2.836c-0.8487-0.0235-1.5564 0.6443-1.582 1.493v1.013c0.025 0.8491 0.7329 1.5175 1.582 1.494z" />
        </symbol>
        <symbol id="chart" viewBox="0 0 24 24" fill="none">
            <path stroke-width="2" stroke="currentColor" stroke-linecap="round" stroke-linejoin="round" d="M21 21H7.8c-1.6802 0-2.5202 0-3.162-0.327-0.5645-0.2876-1.0234-0.7465-1.311-1.311C3 18.7202 3 17.8802 3 16.2V3M15 4v4M11 8v4M7 13v4M19 4v13" />
        </symbol>
        <symbol id="user-edit" viewBox="0 0 24 24" fill="none">
            <path stroke-width="2" stroke="currentColor" stroke-linecap="round" stroke-linejoin="round" d="M4 21c0-3.866 3.134-7 7-7 0.3395 0 0.6734 0.0242 1 0.0709M15 7c0 2.2091-1.7909 4-4 4-2.2091 0-4-1.7909-4-4s1.7909-4 4-4c2.2091 0 4 1.7909 4 4zM12.5898 21l2.025-0.405c0.1766-0.0353 0.2649-0.053 0.3472-0.0853 0.0731-0.0286 0.1425-0.0658 0.2069-0.1107 0.0725-0.0506 0.1362-0.1142 0.2635-0.2416L19.5898 16c0.5523-0.5523 0.5523-1.4477 0-2-0.5522-0.5523-1.4477-0.5523-2 0l-4.1574 4.1574c-0.1273 0.1274-0.191 0.191-0.2416 0.2636-0.0449 0.0643-0.082 0.1338-0.1107 0.2069-0.0323 0.0823-0.0499 0.1706-0.0853 0.3471z" />
        </symbol>
<symbol id="logout" viewBox="0 0 24 24" stroke-width="1.5" stroke="currentColor" stroke-linecap="round" fill="none" xmlns:xlink="http://www.w3.org/1999/xlink">
            <path d="M15 12H2M2 12 5.5 9M2 12l3.5 3" />
            <path d="M9.002 7c0.0121-2.175 0.1085-3.3529 0.8769-4.1213C10.7576 2 12.1718 2 15.0002 2h1c2.8284 0 4.2427 0 5.1213 0.8787C22.0002 3.7574 22.0002 5.1716 22.0002 8v8c0 2.8284 0 4.2426-0.8787 5.1213-0.7684 0.7684-1.9463 0.8649-4.1215 0.877M9.002 17c0.0121 2.175 0.1085 3.3529 0.8769 4.1213 0.6413 0.6413 1.5678 0.8146 3.1211 0.8614" />
        </symbol>

</svg>
